<?xml version="1.0" encoding="UTF-8"?>
<svg width="50" height="50" viewBox="0 0 50 50" fill="none" xmlns="http://www.w3.org/2000/svg">
  <path d="M25 2C12.3 2 2 12.3 2 25C2 37.7 12.3 48 25 48C37.7 48 48 37.7 48 25C48 12.3 37.7 2 25 2ZM25 44C14.5 44 6 35.5 6 25C6 14.5 14.5 6 25 6C35.5 6 44 14.5 44 25C44 35.5 35.5 44 25 44Z" fill="currentColor"/>
  <path d="M25 10C17.3 10 11 16.3 11 24C11 31.7 17.3 38 25 38C32.7 38 39 31.7 39 24C39 16.3 32.7 10 25 10ZM25 34C19.5 34 15 29.5 15 24C15 18.5 19.5 14 25 14C30.5 14 35 18.5 35 24C35 29.5 30.5 34 25 34Z" fill="currentColor"/>
  <path d="M25 18C22.2 18 20 20.2 20 23C20 25.8 22.2 28 25 28C27.8 28 30 25.8 30 23C30 20.2 27.8 18 25 18Z" fill="currentColor"/>
</svg> 